dataset
version=1
nRows=30
nColumns=39
inDegrees=no
endheader
time	sternoclavicular_r2	sternoclavicular_r3	unrotscap_r3	unrotscap_r2	acromioclavicular_r2	acromioclavicular_r3	acromioclavicular_r1	unrothum_r1	unrothum_r3	unrothum_r2	elv_angle	shoulder_elv	shoulder1_r2	shoulder_rot	elbow_flexion	pro_sup	deviation	flexion	cmc_abduction	cmc_flexion	mp_flexion	ip_flexion	mcp2_flexion	mcp2_abduction	pm2_flexion	md2_flexion	mcp3_flexion	mcp3_abduction	pm3_flexion	md3_flexion	mcp4_flexion	mcp4_abduction	pm4_flexion	md4_flexion	mcp5_flexion	mcp5_abduction	pm5_flexion	md5_flexion
7.805000	-0.019686	-0.495528	0.331960	0.109207	0.025659	0.422241	-0.015168	0.089466	-0.069592	0.044525	0.010019	0.027437	0.146525	0.146525	1.076913	4.430244	0.000000	0.000000	0.000000	0.000000	0.000000	0.000000	0.000000	0.000000	0.000000	0.000000	0.000000	0.000000	0.000000	0.000000	0.000000	0.000000	0.000000	0.000000	0.000000	0.000000	0.000000	0.000000
7.810000	-0.019648	-0.495753	0.332749	0.108752	0.025196	0.422286	-0.016167	0.089714	-0.070381	0.044243	0.009555	0.027437	0.146525	0.146525	1.077746	4.430280	0.000000	0.000000	0.000000	0.000000	0.000000	0.000000	0.000000	0.000000	0.000000	0.000000	0.000000	0.000000	0.000000	0.000000	0.000000	0.000000	0.000000	0.000000	0.000000	0.000000	0.000000	0.000000
7.815000	-0.019616	-0.495971	0.333553	0.108278	0.024717	0.422319	-0.017197	0.089954	-0.071202	0.043952	0.009071	0.027437	0.146525	0.146525	1.078638	4.430318	0.000000	0.000000	0.000000	0.000000	0.000000	0.000000	0.000000	0.000000	0.000000	0.000000	0.000000	0.000000	0.000000	0.000000	0.000000	0.000000	0.000000	0.000000	0.000000	0.000000	0.000000	0.000000
7.820000	-0.019591	-0.496180	0.334373	0.107787	0.024223	0.422338	-0.018259	0.090185	-0.072056	0.043652	0.008567	0.027437	0.146525	0.146525	1.079592	4.430358	0.000000	0.000000	0.000000	0.000000	0.000000	0.000000	0.000000	0.000000	0.000000	0.000000	0.000000	0.000000	0.000000	0.000000	0.000000	0.000000	0.000000	0.000000	0.000000	0.000000	0.000000	0.000000
7.825000	-0.019572	-0.496380	0.335207	0.107277	0.023714	0.422344	-0.019352	0.090406	-0.072941	0.043342	0.008042	0.027437	0.146525	0.146525	1.080609	4.430400	0.000000	0.000000	0.000000	0.000000	0.000000	0.000000	0.000000	0.000000	0.000000	0.000000	0.000000	0.000000	0.000000	0.000000	0.000000	0.000000	0.000000	0.000000	0.000000	0.000000	0.000000	0.000000
7.830000	-0.019559	-0.496570	0.336056	0.106749	0.023189	0.422336	-0.020476	0.090617	-0.073859	0.043023	0.007496	0.027437	0.146525	0.146525	1.081690	4.430444	0.000000	0.000000	0.000000	0.000000	0.000000	0.000000	0.000000	0.000000	0.000000	0.000000	0.000000	0.000000	0.000000	0.000000	0.000000	0.000000	0.000000	0.000000	0.000000	0.000000	0.000000	0.000000
7.835000	-0.019553	-0.496749	0.336918	0.106202	0.022648	0.422313	-0.021630	0.090815	-0.074809	0.042694	0.006929	0.027437	0.146525	0.146525	1.082837	4.430491	0.000000	0.000000	0.000000	0.000000	0.000000	0.000000	0.000000	0.000000	0.000000	0.000000	0.000000	0.000000	0.000000	0.000000	0.000000	0.000000	0.000000	0.000000	0.000000	0.000000	0.000000	0.000000
7.840000	-0.019554	-0.496917	0.337792	0.105636	0.022091	0.422274	-0.022814	0.091000	-0.075791	0.042355	0.006341	0.027437	0.146525	0.146525	1.084051	4.430539	0.000000	0.000000	0.000000	0.000000	0.000000	0.000000	0.000000	0.000000	0.000000	0.000000	0.000000	0.000000	0.000000	0.000000	0.000000	0.000000	0.000000	0.000000	0.000000	0.000000	0.000000	0.000000
7.845000	-0.019562	-0.497073	0.338678	0.105051	0.021519	0.422220	-0.024027	0.091171	-0.076805	0.042005	0.005731	0.027437	0.146525	0.146525	1.085334	4.430590	0.000000	0.000000	0.000000	0.000000	0.000000	0.000000	0.000000	0.000000	0.000000	0.000000	0.000000	0.000000	0.000000	0.000000	0.000000	0.000000	0.000000	0.000000	0.000000	0.000000	0.000000	0.000000
7.850000	-0.019578	-0.497216	0.339574	0.104447	0.020931	0.422150	-0.025269	0.091326	-0.077851	0.041645	0.005099	0.027437	0.146525	0.146525	1.086685	4.430642	0.000000	0.000000	0.000000	0.000000	0.000000	0.000000	0.000000	0.000000	0.000000	0.000000	0.000000	0.000000	0.000000	0.000000	0.000000	0.000000	0.000000	0.000000	0.000000	0.000000	0.000000	0.000000
7.855000	-0.019601	-0.497347	0.340481	0.103824	0.020327	0.422062	-0.026538	0.091466	-0.078929	0.041274	0.004444	0.027437	0.146525	0.146525	1.088107	4.430697	0.000000	0.000000	0.000000	0.000000	0.000000	0.000000	0.000000	0.000000	0.000000	0.000000	0.000000	0.000000	0.000000	0.000000	0.000000	0.000000	0.000000	0.000000	0.000000	0.000000	0.000000	0.000000
7.860000	-0.019631	-0.497464	0.341396	0.103180	0.019706	0.421958	-0.027836	0.091588	-0.080038	0.040893	0.003767	0.027437	0.146525	0.146525	1.089600	4.430755	0.000000	0.000000	0.000000	0.000000	0.000000	0.000000	0.000000	0.000000	0.000000	0.000000	0.000000	0.000000	0.000000	0.000000	0.000000	0.000000	0.000000	0.000000	0.000000	0.000000	0.000000	0.000000
7.865000	-0.019668	-0.497566	0.342319	0.102518	0.019070	0.421836	-0.029159	0.091691	-0.081178	0.040500	0.003066	0.027437	0.146525	0.146525	1.091166	4.430814	0.000000	0.000000	0.000000	0.000000	0.000000	0.000000	0.000000	0.000000	0.000000	0.000000	0.000000	0.000000	0.000000	0.000000	0.000000	0.000000	0.000000	0.000000	0.000000	0.000000	0.000000	0.000000
7.870000	-0.019713	-0.497655	0.343249	0.101835	0.018418	0.421696	-0.030509	0.091775	-0.082348	0.040097	0.002342	0.027437	0.146525	0.146525	1.092804	4.430876	0.000000	0.000000	0.000000	0.000000	0.000000	0.000000	0.000000	0.000000	0.000000	0.000000	0.000000	0.000000	0.000000	0.000000	0.000000	0.000000	0.000000	0.000000	0.000000	0.000000	0.000000	0.000000
7.875000	-0.019765	-0.497728	0.344185	0.101133	0.017749	0.421538	-0.031884	0.091838	-0.083549	0.039681	0.001595	0.027437	0.146525	0.146525	1.094516	4.430940	0.000000	0.000000	0.000000	0.000000	0.000000	0.000000	0.000000	0.000000	0.000000	0.000000	0.000000	0.000000	0.000000	0.000000	0.000000	0.000000	0.000000	0.000000	0.000000	0.000000	0.000000	0.000000
7.880000	-0.019825	-0.497786	0.345126	0.100411	0.017065	0.421362	-0.033283	0.091880	-0.084780	0.039255	0.000825	0.027437	0.146525	0.146525	1.096303	4.431006	0.000000	0.000000	0.000000	0.000000	0.000000	0.000000	0.000000	0.000000	0.000000	0.000000	0.000000	0.000000	0.000000	0.000000	0.000000	0.000000	0.000000	0.000000	0.000000	0.000000	0.000000	0.000000
7.885000	-0.019891	-0.497829	0.346070	0.099669	0.016364	0.421166	-0.034705	0.091899	-0.086040	0.038816	0.000030	0.027437	0.146525	0.146525	1.098164	4.431075	0.000000	0.000000	0.000000	0.000000	0.000000	0.000000	0.000000	0.000000	0.000000	0.000000	0.000000	0.000000	0.000000	0.000000	0.000000	0.000000	0.000000	0.000000	0.000000	0.000000	0.000000	0.000000
7.890000	-0.019965	-0.497855	0.347017	0.098907	0.015648	0.420952	-0.036149	0.091893	-0.087328	0.038365	-0.000789	0.027437	0.146525	0.146525	1.100100	4.431145	0.000000	0.000000	0.000000	0.000000	0.000000	0.000000	0.000000	0.000000	0.000000	0.000000	0.000000	0.000000	0.000000	0.000000	0.000000	0.000000	0.000000	0.000000	0.000000	0.000000	0.000000	0.000000
7.895000	-0.020046	-0.497864	0.347966	0.098125	0.014915	0.420718	-0.037615	0.091864	-0.088644	0.037902	-0.001631	0.027437	0.146525	0.146525	1.102111	4.431219	0.000000	0.000000	0.000000	0.000000	0.000000	0.000000	0.000000	0.000000	0.000000	0.000000	0.000000	0.000000	0.000000	0.000000	0.000000	0.000000	0.000000	0.000000	0.000000	0.000000	0.000000	0.000000
7.900000	-0.020134	-0.497857	0.348914	0.097323	0.014166	0.420464	-0.039101	0.091808	-0.089987	0.037426	-0.002498	0.027437	0.146525	0.146525	1.104197	4.431294	0.000000	0.000000	0.000000	0.000000	0.000000	0.000000	0.000000	0.000000	0.000000	0.000000	0.000000	0.000000	0.000000	0.000000	0.000000	0.000000	0.000000	0.000000	0.000000	0.000000	0.000000	0.000000
7.905000	-0.020229	-0.497834	0.349863	0.096501	0.013401	0.420191	-0.040606	0.091725	-0.091356	0.036938	-0.003390	0.027437	0.146525	0.146525	1.106359	4.431372	0.000000	0.000000	0.000000	0.000000	0.000000	0.000000	0.000000	0.000000	0.000000	0.000000	0.000000	0.000000	0.000000	0.000000	0.000000	0.000000	0.000000	0.000000	0.000000	0.000000	0.000000	0.000000
7.910000	-0.020329	-0.497793	0.350809	0.095658	0.012620	0.419898	-0.042129	0.091615	-0.092751	0.036436	-0.004306	0.027437	0.146525	0.146525	1.108597	4.431452	0.000000	0.000000	0.000000	0.000000	0.000000	0.000000	0.000000	0.000000	0.000000	0.000000	0.000000	0.000000	0.000000	0.000000	0.000000	0.000000	0.000000	0.000000	0.000000	0.000000	0.000000	0.000000
7.915000	-0.020437	-0.497734	0.351752	0.094796	0.011823	0.419585	-0.043669	0.091476	-0.094170	0.035922	-0.005246	0.027437	0.146525	0.146525	1.110910	4.431535	0.000000	0.000000	0.000000	0.000000	0.000000	0.000000	0.000000	0.000000	0.000000	0.000000	0.000000	0.000000	0.000000	0.000000	0.000000	0.000000	0.000000	0.000000	0.000000	0.000000	0.000000	0.000000
7.920000	-0.020550	-0.497659	0.352691	0.093914	0.011010	0.419253	-0.045224	0.091307	-0.095613	0.035394	-0.006211	0.027437	0.146525	0.146525	1.113297	4.431620	0.000000	0.000000	0.000000	0.000000	0.000000	0.000000	0.000000	0.000000	0.000000	0.000000	0.000000	0.000000	0.000000	0.000000	0.000000	0.000000	0.000000	0.000000	0.000000	0.000000	0.000000	0.000000
7.925000	-0.020668	-0.497566	0.353625	0.093012	0.010181	0.418900	-0.046794	0.091109	-0.097078	0.034853	-0.007200	0.027437	0.146525	0.146525	1.115760	4.431708	0.000000	0.000000	0.000000	0.000000	0.000000	0.000000	0.000000	0.000000	0.000000	0.000000	0.000000	0.000000	0.000000	0.000000	0.000000	0.000000	0.000000	0.000000	0.000000	0.000000	0.000000	0.000000
7.930000	-0.020792	-0.497455	0.354553	0.092090	0.009336	0.418527	-0.048377	0.090879	-0.098565	0.034298	-0.008214	0.027437	0.146525	0.146525	1.118296	4.431797	0.000000	0.000000	0.000000	0.000000	0.000000	0.000000	0.000000	0.000000	0.000000	0.000000	0.000000	0.000000	0.000000	0.000000	0.000000	0.000000	0.000000	0.000000	0.000000	0.000000	0.000000	0.000000
7.935000	-0.020922	-0.497327	0.355473	0.091149	0.008476	0.418134	-0.049972	0.090618	-0.100072	0.033728	-0.009253	0.027437	0.146525	0.146525	1.120905	4.431889	0.000000	0.000000	0.000000	0.000000	0.000000	0.000000	0.000000	0.000000	0.000000	0.000000	0.000000	0.000000	0.000000	0.000000	0.000000	0.000000	0.000000	0.000000	0.000000	0.000000	0.000000	0.000000
7.940000	-0.021055	-0.497182	0.356384	0.090188	0.007599	0.417722	-0.051578	0.090324	-0.101598	0.033145	-0.010316	0.027437	0.146525	0.146525	1.123588	4.431984	0.000000	0.000000	0.000000	0.000000	0.000000	0.000000	0.000000	0.000000	0.000000	0.000000	0.000000	0.000000	0.000000	0.000000	0.000000	0.000000	0.000000	0.000000	0.000000	0.000000	0.000000	0.000000
7.945000	-0.021193	-0.497019	0.357286	0.089207	0.006708	0.417289	-0.053193	0.089998	-0.103143	0.032547	-0.011403	0.027437	0.146525	0.146525	1.126341	4.432081	0.000000	0.000000	0.000000	0.000000	0.000000	0.000000	0.000000	0.000000	0.000000	0.000000	0.000000	0.000000	0.000000	0.000000	0.000000	0.000000	0.000000	0.000000	0.000000	0.000000	0.000000	0.000000
7.950000	-0.021335	-0.496840	0.358176	0.088207	0.005800	0.416837	-0.054816	0.089638	-0.104704	0.031935	-0.012514	0.027437	0.146525	0.146525	1.129166	4.432180	0.000000	0.000000	0.000000	0.000000	0.000000	0.000000	0.000000	0.000000	0.000000	0.000000	0.000000	0.000000	0.000000	0.000000	0.000000	0.000000	0.000000	0.000000	0.000000	0.000000	0.000000	0.000000
